<svg width="112" height="104" viewBox="0 0 112 104" fill="none" xmlns="http://www.w3.org/2000/svg">
<g id="Group 1707481642">
<path id="Union" fill-rule="evenodd" clip-rule="evenodd" d="M112 50.8051C112 64.1389 106.913 76.2729 98.5932 85.3364C95.5565 88.7077 92.0282 91.7377 88.0344 94.3129C64.1555 109.71 22.4303 107.202 7.47754 83.553L17.5456 77.3135C10.4408 74.1507 4.24819 69.3953 2.39578e-05 62.997L11.5925 55.48C11.4534 53.9405 11.3823 52.3812 11.3823 50.8051C11.3823 22.7462 33.9063 0 61.6911 0C79.5714 0 95.2731 9.41991 104.195 23.6136L104.197 23.6128C108.64 30.64 111.124 38.374 111.794 46.1781C111.93 47.702 112 49.2454 112 50.8051Z" fill="#E97C70"/>
<path id="Vector 12086" d="M59.0057 37.9303L52.3887 33.4349" stroke="black" stroke-width="3.37168" stroke-linecap="round"/>
<path id="Vector 12087" d="M77.7724 37.9301L84.0283 33.7993" stroke="black" stroke-width="3.37168" stroke-linecap="round"/>
<path id="Vector 9" d="M72.8101 55.4249C71.344 54.2914 67.4222 52.7044 63.4638 55.4249" stroke="black" stroke-width="3.37168" stroke-linecap="round"/>
</g>
</svg>
