<svg width="112" height="105" viewBox="0 0 112 105" fill="none" xmlns="http://www.w3.org/2000/svg">
<g id="Group 1707481645">
<path id="Union" fill-rule="evenodd" clip-rule="evenodd" d="M112 51.2446C112 64.576 106.915 76.7081 98.5976 85.7711C95.5599 89.1443 92.0301 92.176 88.0344 94.7525C64.1555 110.15 22.4303 107.642 7.47754 83.9925L16.8161 78.2051C10.0173 75.0453 4.10215 70.3988 2.39578e-05 64.2205L11.6644 56.6568C11.478 54.8785 11.3823 53.0728 11.3823 51.2446C11.3823 23.1857 33.9063 0.439453 61.6911 0.439453C79.5714 0.439453 95.2731 9.85939 104.195 24.0531L104.197 24.0524C108.639 31.0789 111.123 38.812 111.794 46.6153C111.93 48.14 112 49.6841 112 51.2446Z" fill="#AD96F7"/>
<path id="Vector 12088" d="M54.6616 31.907L89.2615 41.3284" stroke="black" stroke-width="3.37" stroke-linecap="round"/>
<path id="Vector 12089" d="M89.0039 30.8064L54.92 42.4294" stroke="black" stroke-width="3.37" stroke-linecap="round"/>
<path id="Vector 12098" d="M60.1573 59.3869C60.6923 58.2384 61.6204 56.694 64.2916 56.694C66.9628 56.694 67.1752 59.9894 69.6659 59.9695C72.1566 59.9497 72.813 56.1212 75.3583 55.9181C77.9036 55.715 78.6923 58.9456 81.2734 59.3869C82.3147 59.5649 84.7716 59.3869 86.3616 55.9181" stroke="black" stroke-width="3.37" stroke-linecap="round"/>
</g>
</svg>
