<svg width="113" height="105" viewBox="0 0 113 105" fill="none" xmlns="http://www.w3.org/2000/svg">
<g id="Group 1707481648">
<path id="Union" fill-rule="evenodd" clip-rule="evenodd" d="M112.389 51.6836C112.389 65.0173 107.302 77.1514 98.9819 86.2149C95.9452 89.5861 92.4169 92.6161 88.423 95.1914C64.5442 110.589 22.819 108.081 7.86621 84.4314L17.9342 78.1919C10.8295 75.0292 4.63686 70.2738 0.388696 63.8755L11.9811 56.3584C11.8421 54.819 11.771 53.2596 11.771 51.6836C11.771 23.6247 34.295 0.878448 62.0798 0.878448C79.9601 0.878448 95.6618 10.2984 104.584 24.492L104.585 24.4913C109.028 31.5185 111.512 39.2524 112.183 47.0566C112.319 48.5805 112.389 50.1238 112.389 51.6836Z" fill="#7499F5"/>
<path id="Vector 9" d="M73.1987 56.3034C71.7327 55.1698 67.8109 53.5828 63.8524 56.3034" stroke="black" stroke-width="3.37168" stroke-linecap="round"/>
<path id="Vector 12089" d="M82.7506 33.8846L77.1023 39.5325" stroke="black" stroke-width="3.37" stroke-linecap="round"/>
<path id="Vector 12091" d="M59.9166 33.1811L52.8612 40.236" stroke="black" stroke-width="3.37" stroke-linecap="round"/>
<path id="Vector 12090" d="M82.6565 39.4385L77.1963 33.9788" stroke="black" stroke-width="3.37" stroke-linecap="round"/>
<path id="Vector 12092" d="M59.7991 40.1186L52.9787 33.2988" stroke="black" stroke-width="3.37" stroke-linecap="round"/>
<path id="Vector 12095" d="M23.6108 4.31586V39.9335" stroke="black" stroke-width="3.37" stroke-linecap="round"/>
<path id="Vector 12096" d="M31.6108 4.31586V31.2835" stroke="black" stroke-width="3.37" stroke-linecap="round"/>
<path id="Vector 12097" d="M39.6108 4.31586V45.7849" stroke="black" stroke-width="3.37" stroke-linecap="round"/>
</g>
</svg>
