<svg width="113" height="105" viewBox="0 0 113 105" fill="none" xmlns="http://www.w3.org/2000/svg">
<g id="Group 1707481644">
<path id="Union" fill-rule="evenodd" clip-rule="evenodd" d="M112.486 51.3127C112.486 64.643 107.402 76.7742 99.0859 85.837C96.0477 89.211 92.5173 92.2435 88.5207 94.8205C64.6418 110.218 22.9166 107.71 7.96387 84.0606L18.032 77.821C10.9272 74.6583 4.73454 69.9029 0.486352 63.5045L12.0788 55.9875C11.9397 54.4481 11.8687 52.8887 11.8687 51.3127C11.8687 23.2539 34.3927 0.50769 62.1774 0.50769C80.0578 0.50769 95.7595 9.92761 104.682 24.1213L104.683 24.1206C109.125 31.1466 111.609 38.8791 112.28 46.682C112.416 48.2071 112.486 49.7517 112.486 51.3127Z" fill="#53DF8B"/>
<path id="Vector 12091" d="M50.2983 34.6659L61.7529 40.4497L50.2983 44.7339" stroke="black" stroke-width="3.37" stroke-linecap="round" stroke-linejoin="round"/>
<path id="Vector 12092" d="M85.7148 35.7341L76.6906 40.2907L85.7148 43.666" stroke="black" stroke-width="3.37" stroke-linecap="round" stroke-linejoin="round"/>
<path id="Vector 9" d="M61.2607 53.6963C63.3556 56.7662 69.5033 61.6427 75.809 53.7666L61.2607 53.6963Z" fill="#81DBA5" stroke="black" stroke-width="3.37" stroke-linecap="round" stroke-linejoin="round"/>
</g>
</svg>
