<svg width="113" height="105" viewBox="0 0 113 105" fill="none" xmlns="http://www.w3.org/2000/svg">
<g id="Group 1707481646">
<path id="Union" fill-rule="evenodd" clip-rule="evenodd" d="M112.116 51.2446C112.116 64.6037 107.01 76.7586 98.6619 85.8276C95.6356 89.1782 92.123 92.1904 88.1496 94.7525C64.2707 110.15 22.5455 107.642 7.59277 83.9925L17.6613 77.7527C10.5567 74.5899 4.36431 69.8346 0.116235 63.4364L11.7087 55.9194C11.5696 54.3799 11.4985 52.8206 11.4985 51.2446C11.4985 23.1857 34.0225 0.439453 61.8073 0.439453C79.6875 0.439453 95.389 9.8592 104.311 24.0527L104.312 24.0524C108.701 30.9942 111.178 38.6256 111.884 46.3332C112.038 47.9494 112.116 49.5877 112.116 51.2446Z" fill="#F3EA42"/>
<path id="Ellipse 24" d="M57.2053 40.3935C57.2053 42.5421 55.4816 44.2775 53.3629 44.2775C51.2442 44.2775 49.5204 42.5421 49.5204 40.3935C49.5204 38.2449 51.2442 36.5094 53.3629 36.5094C55.4816 36.5094 57.2053 38.2449 57.2053 40.3935Z" fill="black" stroke="#F3EA42" stroke-width="0.749808"/>
<path id="Ellipse 25" d="M87.6424 39.1718C87.6424 41.3204 85.9186 43.0559 83.7999 43.0559C81.6812 43.0559 79.9574 41.3204 79.9574 39.1718C79.9574 37.0232 81.6812 35.2877 83.7999 35.2877C85.9186 35.2877 87.6424 37.0232 87.6424 39.1718Z" fill="black" stroke="#F3EA42" stroke-width="0.749808"/>
<path id="Vector 9" d="M60.8906 53.6281C63.1815 55.3993 69.3095 57.8791 75.4949 53.6281" stroke="black" stroke-width="3.37168" stroke-linecap="round"/>
</g>
</svg>
