<svg width="113" height="105" viewBox="0 0 113 105" fill="none" xmlns="http://www.w3.org/2000/svg">
<g id="Group 1707481643">
<path id="Union" fill-rule="evenodd" clip-rule="evenodd" d="M112.243 51.0922C112.243 64.4537 107.135 76.6104 98.7844 85.68C95.7592 89.0286 92.2481 92.0391 88.2766 94.6C64.3977 109.997 22.6725 107.489 7.71973 83.84L17.7885 77.6001C10.6838 74.4373 4.49131 69.6819 0.243188 63.2837L11.8356 55.7667C11.6966 54.2273 11.6255 52.6681 11.6255 51.0922C11.6255 23.0333 34.1495 0.287048 61.9343 0.287048C79.8144 0.287048 95.5159 9.70676 104.438 23.9002L104.439 23.8999C108.828 30.8424 111.306 38.4748 112.011 46.1832C112.165 47.7986 112.243 49.4361 112.243 51.0922Z" fill="#B9F5F4"/>
<path id="Ellipse 3362" d="M54.8377 63.1626C53.8006 67.7611 50.15 70.6022 45.5964 69.555C41.0428 68.5077 38.692 64.3304 39.7291 59.7319C40.7661 55.1334 50.8459 40.9722 52.3345 41.3145C53.8231 41.6569 55.8748 58.564 54.8377 63.1626Z" fill="#58A6CA"/>
<path id="Ellipse 3363" d="M92.6521 53.1737C93.2115 56.4802 91.5262 59.5295 88.888 59.9847C86.2497 60.4398 83.6576 58.1284 83.0982 54.8219C82.5389 51.5155 84.9502 41.9538 85.8126 41.805C86.675 41.6562 92.0928 49.8673 92.6521 53.1737Z" fill="#58A6CA"/>
<path id="Vector 12086" d="M60.1165 31.4365L53.4751 35.9483" stroke="black" stroke-width="3.37168" stroke-linecap="round"/>
<path id="Vector 12087" d="M78.953 31.8023L85.2319 35.9483" stroke="black" stroke-width="3.37168" stroke-linecap="round"/>
<path id="Vector 9" d="M73.9712 53.5077C72.4997 52.37 68.5636 50.7771 64.5906 53.5077" stroke="black" stroke-width="3.37168" stroke-linecap="round"/>
</g>
</svg>
