<svg width="113" height="105" viewBox="0 0 113 105" fill="none" xmlns="http://www.w3.org/2000/svg">
<g id="Group 1707481641">
<path id="Union" fill-rule="evenodd" clip-rule="evenodd" d="M112.026 51.2444C112.026 64.5882 106.931 76.7306 98.6 85.7963C95.5674 89.1593 92.0453 92.1822 88.0596 94.7523C64.1806 110.15 22.4553 107.641 7.50244 83.9923L17.5711 77.7525C10.4663 74.5897 4.27361 69.8343 0.0254146 63.436L11.6179 55.919C11.4788 54.3796 11.4077 52.8204 11.4077 51.2444C11.4077 23.1856 33.9318 0.439453 61.7167 0.439453C79.597 0.439453 95.2987 9.85928 104.221 24.0529L104.222 24.0524C108.637 31.0353 111.118 38.7162 111.806 46.4703C111.951 48.042 112.026 49.6344 112.026 51.2444Z" fill="#E0E0E0"/>
<path id="?" d="M58.0789 56.7873V49.6513C58.9109 49.5873 59.7429 49.438 60.5749 49.2033C61.4069 48.9686 62.1429 48.638 62.7829 48.2113C63.4442 47.7846 63.9775 47.2513 64.3829 46.6113C64.8095 45.95 65.0229 45.1713 65.0229 44.2753C65.0229 43.6353 64.8949 43.07 64.6389 42.5793C64.3829 42.0673 64.0415 41.6513 63.6149 41.3313C63.2095 40.99 62.7295 40.734 62.1749 40.5633C61.6415 40.3926 61.0869 40.3073 60.5109 40.3073C59.8709 40.3073 59.2735 40.4246 58.7189 40.6593C58.1855 40.894 57.6949 41.214 57.2469 41.6193C56.8202 42.0033 56.4469 42.4513 56.1269 42.9633C55.8282 43.4753 55.5935 44.0193 55.4229 44.5953L51.4229 42.8993C51.7429 41.7473 52.2122 40.766 52.8309 39.9553C53.4495 39.1233 54.1749 38.4513 55.0069 37.9393C55.8389 37.406 56.7562 37.0113 57.7589 36.7553C58.7615 36.4993 59.8069 36.3713 60.8949 36.3713C62.2602 36.3713 63.5082 36.5633 64.6389 36.9473C65.7695 37.31 66.7295 37.822 67.5189 38.4833C68.3295 39.1446 68.9589 39.9446 69.4069 40.8833C69.8549 41.8006 70.0789 42.8033 70.0789 43.8913C70.0789 44.9793 69.8869 45.9713 69.5029 46.8673C69.1189 47.7633 68.6069 48.5526 67.9669 49.2353C67.3269 49.918 66.5802 50.5046 65.7269 50.9953C64.8949 51.4646 64.0202 51.8273 63.1029 52.0833V56.7873H58.0789ZM58.0789 59.5073H63.1029V64.1793H58.0789V59.5073Z" fill="#777777"/>
</g>
</svg>
