<svg width="81" height="81" viewBox="0 0 81 81" fill="none" xmlns="http://www.w3.org/2000/svg">
<g id="Group 1707481637">
<circle id="Ellipse 3364" cx="40.8071" cy="40.1084" r="40" fill="white"/>
<g id="echo">
<path id="Union" fill-rule="evenodd" clip-rule="evenodd" d="M65.5454 39.4636C65.5454 45.6266 63.177 51.2342 59.3042 55.4193C57.8979 56.968 56.2653 58.3602 54.4182 59.5442C43.3316 66.6507 23.9592 65.4931 17.0168 54.5781L21.6914 51.6982C18.3928 50.2385 15.5177 48.0437 13.5454 45.0907L18.9277 41.6212C18.8631 40.9107 18.8301 40.1911 18.8301 39.4636C18.8301 26.5134 29.2877 16.0151 42.1877 16.0151C50.4893 16.0151 57.7793 20.3627 61.9218 26.9136L61.9221 26.9134C63.9666 30.1278 65.1177 33.6627 65.441 37.232C65.5101 37.9665 65.5454 38.7109 65.5454 39.4636Z" fill="#E97C70"/>
<path id="Vector 12086" d="M40.9409 33.5216L37.8687 31.4468" stroke="black" stroke-width="1.58" stroke-linecap="round"/>
<path id="Vector 12087" d="M49.654 33.5215L52.5586 31.615" stroke="black" stroke-width="1.58" stroke-linecap="round"/>
<path id="Vector 9" d="M47.3499 41.5961C46.6692 41.0729 44.8484 40.3404 43.0105 41.5961" stroke="black" stroke-width="1.58" stroke-linecap="round"/>
</g>
</g>
</svg>
