<svg width="81" height="81" viewBox="0 0 81 81" fill="none" xmlns="http://www.w3.org/2000/svg">
<g id="Group 1707481638">
<circle id="Ellipse 3364" cx="40.8896" cy="40.2384" r="40" fill="white"/>
<path id="Union" fill-rule="evenodd" clip-rule="evenodd" d="M65.6074 39.6869C65.6074 45.8491 63.2396 51.456 59.3676 55.6409C57.9611 57.1903 56.328 58.5831 54.4802 59.7675C43.3936 66.874 24.0212 65.7164 17.0788 54.8014L21.4147 52.1302C18.2582 50.6718 15.5119 48.5273 13.6074 45.6758L19.0231 42.1848C18.9365 41.3641 18.8921 40.5307 18.8921 39.6869C18.8921 26.7367 29.3497 16.2384 42.2498 16.2384C50.5513 16.2384 57.8413 20.586 61.9838 27.1369L61.9841 27.1367C64.0285 30.3509 65.1795 33.8855 65.5029 37.4544C65.572 38.1893 65.6074 38.9339 65.6074 39.6869Z" fill="#AD96F7"/>
<path id="Vector 12088" d="M38.5898 31.245L54.6541 35.5934" stroke="black" stroke-width="1.58" stroke-linecap="round"/>
<path id="Vector 12089" d="M54.5347 30.7371L38.71 36.1015" stroke="black" stroke-width="1.58" stroke-linecap="round"/>
<path id="Vector 12098" d="M41.1415 44.09C41.3899 43.5568 41.8208 42.8398 43.061 42.8397C44.3012 42.8397 44.3998 44.3698 45.5562 44.3605C46.7126 44.3513 47.0174 42.5738 48.1991 42.4795C49.3808 42.3852 49.747 43.8851 50.9454 44.09C51.4289 44.1727 52.5695 44.09 53.3078 42.4795" stroke="black" stroke-width="1.58" stroke-linecap="round"/>
</g>
</svg>
