<svg width="81" height="81" viewBox="0 0 81 81" fill="none" xmlns="http://www.w3.org/2000/svg">
<g id="Group 1707481649">
<circle id="Ellipse 3364" cx="40.5454" cy="40.0157" r="40" fill="white"/>
<path id="Union" fill-rule="evenodd" clip-rule="evenodd" d="M65.2621 39.3214C65.2621 45.4754 62.9007 51.0756 59.0378 55.2588C57.6278 56.8148 55.9897 58.2133 54.1353 59.402C43.0487 66.5084 23.6763 65.3509 16.7339 54.4358L21.4083 51.5561C18.1097 50.0963 15.2346 47.9015 13.2622 44.9485L18.6444 41.4791C18.5798 40.7685 18.5468 40.0489 18.5468 39.3214C18.5468 26.3712 29.0044 15.8729 41.9045 15.8729C50.2061 15.8729 57.4961 20.2206 61.6386 26.7715L61.6392 26.7711C63.7026 30.0153 64.8559 33.5858 65.1668 37.1886C65.2299 37.8911 65.2621 38.6025 65.2621 39.3214Z" fill="#7499F5"/>
<path id="Vector 9" d="M47.0669 41.4536C46.3862 40.9305 44.5654 40.198 42.7275 41.4536" stroke="black" stroke-width="1.56542" stroke-linecap="round"/>
<path id="Vector 12089" d="M51.5017 31.1065L48.8793 33.7132" stroke="black" stroke-width="1.56464" stroke-linecap="round"/>
<path id="Vector 12091" d="M40.9001 30.7819L37.6243 34.0379" stroke="black" stroke-width="1.56464" stroke-linecap="round"/>
<path id="Vector 12090" d="M51.4579 33.6699L48.9228 31.15" stroke="black" stroke-width="1.56464" stroke-linecap="round"/>
<path id="Vector 12092" d="M40.8456 33.9837L37.679 30.8362" stroke="black" stroke-width="1.56464" stroke-linecap="round"/>
<path id="Vector 12095" d="M24.0439 17.4688V34.0056" stroke="black" stroke-width="1.56464" stroke-linecap="round"/>
<path id="Vector 12096" d="M27.7583 17.4688V29.9895" stroke="black" stroke-width="1.56464" stroke-linecap="round"/>
<path id="Vector 12097" d="M31.4724 17.4688V36.7223" stroke="black" stroke-width="1.56464" stroke-linecap="round"/>
</g>
</svg>
