<svg width="80" height="81" viewBox="0 0 80 81" fill="none" xmlns="http://www.w3.org/2000/svg">
<g id="Group 1707481636">
<circle id="Ellipse 3364" cx="40" cy="40.0454" r="40" fill="white"/>
<g id="echo">
<path id="Union" fill-rule="evenodd" clip-rule="evenodd" d="M64.5351 39.5867C64.5351 45.7496 62.1668 51.3572 58.2939 55.5423C56.8877 57.091 55.2551 58.4833 53.408 59.6673C42.3213 66.7737 22.9489 65.6161 16.0066 54.7011L20.6812 51.8213C17.3826 50.3615 14.5075 48.1667 12.5352 45.2137L17.9174 41.7443C17.8529 41.0338 17.8199 40.3141 17.8199 39.5867C17.8199 26.6364 28.2774 16.1382 41.1775 16.1382C49.479 16.1382 56.769 20.4858 60.9115 27.0366L60.9119 27.0364C62.9564 30.2509 64.1074 33.7857 64.4307 37.355C64.4998 38.0896 64.5351 38.834 64.5351 39.5867Z" fill="#53DF8B"/>
<path id="Vector 12091" d="M35.6621 31.9037L40.9803 34.5732L35.6621 36.5505" stroke="black" stroke-width="1.58" stroke-linecap="round" stroke-linejoin="round"/>
<path id="Vector 12092" d="M52.1057 32.3967L47.9159 34.4998L52.1057 36.0576" stroke="black" stroke-width="1.58" stroke-linecap="round" stroke-linejoin="round"/>
<path id="Vector 9" d="M40.752 40.687C41.7246 42.1039 44.5789 44.3546 47.5065 40.7194L40.752 40.687Z" fill="#53DF8B" stroke="black" stroke-width="1.58" stroke-linecap="round" stroke-linejoin="round"/>
</g>
</g>
</svg>
