<svg width="81" height="80" viewBox="0 0 81 80" fill="none" xmlns="http://www.w3.org/2000/svg">
<g id="Group 1707481635">
<circle id="Ellipse 3364" cx="40.2417" cy="40" r="40" fill="white"/>
<g id="echo">
<path id="Union" fill-rule="evenodd" clip-rule="evenodd" d="M65.0835 39.0886C65.0835 45.2516 62.7151 50.8592 58.8422 55.0443C57.436 56.593 55.8034 57.9852 53.9563 59.1692C42.8697 66.2757 23.4973 65.1181 16.5549 54.2031L21.2297 51.3231C17.931 49.8634 15.0559 47.6686 13.0835 44.7155L18.4657 41.2461C18.4012 40.5356 18.3682 39.816 18.3682 39.0886C18.3682 26.1384 28.8258 15.6401 41.7258 15.6401C50.0274 15.6401 57.3174 19.9877 61.4599 26.5386L61.4602 26.5384C63.5047 29.7528 64.6558 33.2877 64.9791 36.857C65.0481 37.5915 65.0835 38.3359 65.0835 39.0886Z" fill="#B9F5F4"/>
<path id="Ellipse 3362" d="M38.4307 44.6598C37.9492 46.7822 36.2542 48.0935 34.1401 47.6101C32.0259 47.1268 30.9344 45.1988 31.4159 43.0764C31.8974 40.954 36.5773 34.4181 37.2685 34.5761C37.9596 34.7341 38.9122 42.5374 38.4307 44.6598Z" fill="#58A6CA"/>
<path id="Ellipse 3363" d="M55.9876 40.0495C56.2473 41.5756 55.4648 42.983 54.24 43.1931C53.0151 43.4031 51.8116 42.3363 51.5519 40.8103C51.2922 39.2842 52.4117 34.8711 52.8121 34.8024C53.2125 34.7338 55.7279 38.5235 55.9876 40.0495Z" fill="#58A6CA"/>
<path id="Vector 12086" d="M40.8818 30.017L37.7983 32.0994" stroke="black" stroke-width="1.58" stroke-linecap="round"/>
<path id="Vector 12087" d="M49.6273 30.1858L52.5425 32.0994" stroke="black" stroke-width="1.58" stroke-linecap="round"/>
<path id="Vector 9" d="M47.3145 40.2037C46.6313 39.6786 44.8038 38.9434 42.9592 40.2037" stroke="black" stroke-width="1.58" stroke-linecap="round"/>
</g>
</g>
</svg>
