<svg width="81" height="81" viewBox="0 0 81 81" fill="none" xmlns="http://www.w3.org/2000/svg">
<g id="Group 1707481639">
<circle id="Ellipse 3364" cx="40.4578" cy="40.2384" r="40" fill="white"/>
<g id="echo">
<path id="Union" fill-rule="evenodd" clip-rule="evenodd" d="M65.0847 39.9154C65.0847 46.0776 62.7169 51.6845 58.8449 55.8695C57.4384 57.4188 55.8053 58.8116 53.9575 59.996C42.8709 67.1025 23.4985 65.9449 16.5561 55.0299L21.2307 52.15C17.9322 50.6903 15.0571 48.4955 13.0847 45.5425L18.467 42.073C18.4024 41.3625 18.3694 40.6428 18.3694 39.9154C18.3694 26.9652 28.827 16.4669 41.7271 16.4669C50.0286 16.4669 57.3186 20.8145 61.4611 27.3654L61.4614 27.3652C63.5058 30.5794 64.6568 34.114 64.9802 37.683C65.0493 38.4178 65.0847 39.1625 65.0847 39.9154Z" fill="#F3EA42"/>
<path id="Ellipse 24" d="M39.5905 34.9075C39.5905 35.8976 38.7911 36.6991 37.8065 36.6991C36.8218 36.6991 36.0225 35.8976 36.0225 34.9075C36.0225 33.9173 36.8218 33.1158 37.8065 33.1158C38.7911 33.1158 39.5905 33.9173 39.5905 34.9075Z" fill="black" stroke="#F3EA42" stroke-width="0.348125"/>
<path id="Ellipse 25" d="M53.7216 34.3436C53.7216 35.3337 52.9222 36.1352 51.9376 36.1352C50.9529 36.1352 50.1536 35.3337 50.1536 34.3436C50.1536 33.3535 50.9529 32.552 51.9376 32.552C52.9222 32.552 53.7216 33.3535 53.7216 34.3436Z" fill="black" stroke="#F3EA42" stroke-width="0.348125"/>
<path id="Vector 9" d="M41.3015 41.0157C42.3651 41.8332 45.2103 42.9778 48.0821 41.0157" stroke="black" stroke-width="1.58" stroke-linecap="round"/>
</g>
</g>
</svg>
