<svg width="376" height="184" viewBox="0 0 376 184" fill="none" xmlns="http://www.w3.org/2000/svg">
<path d="M90.3828 113.219C92.5234 113.219 94.1172 114.547 94.1328 116.406C94.1172 118.281 92.5234 119.594 90.3828 119.594C88.2266 119.594 86.6328 118.281 86.6328 116.406C86.6328 114.547 88.2266 113.219 90.3828 113.219ZM90.3828 114.656C89.1953 114.656 88.3203 115.328 88.3203 116.406C88.3203 117.5 89.1953 118.188 90.3828 118.188C91.5703 118.188 92.4453 117.5 92.4453 116.406C92.4453 115.328 91.5703 114.656 90.3828 114.656ZM98.1484 112.766V119.906H96.3984V112.766H98.1484ZM98.1484 120.516V124.203H90.5078V125.344H98.5703V126.719H88.8047V122.922H96.4141V121.875H88.7734V120.516H98.1484ZM105.211 115.016C105.211 116.797 106.367 118.469 108.539 119.156L107.602 120.516C106.078 120 104.984 118.969 104.383 117.656C103.758 119.156 102.617 120.336 100.992 120.906L100.055 119.547C102.336 118.75 103.461 116.875 103.477 114.859V113.516H105.211V115.016ZM111.352 112.766V116.203H113.32V117.641H111.352V121.219H109.617V112.766H111.352ZM106.758 121.531C109.68 121.516 111.477 122.516 111.492 124.188C111.477 125.891 109.68 126.875 106.758 126.875C103.805 126.875 101.977 125.891 101.977 124.188C101.977 122.516 103.805 121.516 106.758 121.531ZM106.758 122.891C104.82 122.891 103.711 123.359 103.711 124.188C103.711 125.062 104.82 125.5 106.758 125.5C108.695 125.5 109.773 125.062 109.773 124.188C109.773 123.359 108.695 122.891 106.758 122.891ZM126.227 112.766V126.891H124.555V112.766H126.227ZM123.32 113.016V126.203H121.664V119.484H120.32C120.156 122.234 118.977 123.938 117.227 123.922C115.383 123.938 114.18 121.984 114.18 118.875C114.18 115.766 115.383 113.844 117.227 113.844C118.938 113.844 120.102 115.438 120.305 118.078H121.664V113.016H123.32ZM117.227 115.484C116.336 115.469 115.773 116.672 115.789 118.875C115.773 121.078 116.336 122.281 117.227 122.266C118.164 122.281 118.727 121.078 118.727 118.875C118.727 116.672 118.164 115.469 117.227 115.484ZM133.086 116.156C133.086 118.781 134.336 121.359 136.586 122.344L135.539 123.734C133.938 122.953 132.812 121.453 132.211 119.609C131.594 121.555 130.445 123.172 128.82 124L127.727 122.594C130.023 121.516 131.305 118.797 131.32 116.156V113.906H133.086V116.156ZM139.711 112.766V126.906H137.992V118.734H135.023V117.328H137.992V112.766H139.711ZM154.586 120.984V122.359H148.961V126.891H147.242V122.359H141.68V120.984H154.586ZM144.961 113.328V115.062H151.273V113.328H153.023V119.516H143.242V113.328H144.961ZM144.961 118.109H151.273V116.438H144.961V118.109ZM167.367 112.766V126.906H165.648V119.281H162.992V117.875H165.648V112.766H167.367ZM162.773 113.984V115.406H157.914V117.938H162.211V119.312H157.914V122.219C160.062 122.211 161.672 122.141 163.492 121.844L163.664 123.25C161.602 123.562 159.805 123.641 157.273 123.656H156.164V113.984H162.773ZM184.289 112.766V116.344H186.258V117.797H184.289V121.281H182.555V112.766H184.289ZM184.289 121.953V126.719H175.164V121.953H184.289ZM176.883 123.328V125.312H182.57V123.328H176.883ZM181.539 114.125V115.516H173.164V114.125H176.492V112.672H178.227V114.125H181.539ZM177.352 116.031C179.398 116.031 180.789 117.062 180.805 118.562C180.789 120.078 179.398 121.094 177.352 121.094C175.289 121.094 173.883 120.078 173.883 118.562C173.883 117.062 175.289 116.031 177.352 116.031ZM177.352 117.344C176.273 117.344 175.57 117.797 175.57 118.562C175.57 119.344 176.273 119.797 177.352 119.797C178.43 119.797 179.148 119.344 179.148 118.562C179.148 117.797 178.43 117.344 177.352 117.344ZM190.461 114.422C190.445 117.75 190.07 120.969 188.195 123.75L186.836 123.016C188.398 120.82 188.852 118.531 188.961 115.828H187.242V114.422H190.461ZM193.617 114.422C193.609 115.633 193.586 116.891 193.461 118.141H194.883V113.109H196.523V126.219H194.883V119.547H193.273C192.961 121.297 192.391 123 191.352 124.531L190.023 123.781C191.719 121.352 192.047 118.633 192.117 115.828H190.883V114.422H193.617ZM199.258 112.766V126.891H197.586V112.766H199.258ZM211.867 112.766V118.391H214.039V119.828H211.867V126.891H210.148V112.766H211.867ZM209.055 114.938V116.328H200.727V114.938H204.07V112.969H205.805V114.938H209.055ZM204.945 117.25C206.977 117.25 208.492 118.625 208.492 120.578C208.492 122.531 206.977 123.891 204.945 123.891C202.883 123.891 201.367 122.531 201.383 120.578C201.367 118.625 202.883 117.25 204.945 117.25ZM204.945 118.672C203.836 118.672 203.039 119.422 203.039 120.578C203.039 121.734 203.836 122.469 204.945 122.453C206.023 122.469 206.82 121.734 206.836 120.578C206.82 119.422 206.023 118.672 204.945 118.672ZM226.07 116.766V118.141H216.289V113.281H218.008V116.766H226.07ZM227.523 119.781V121.156H214.617V119.781H227.523ZM226.164 125.156V126.562H216.164V122.406H217.898V125.156H226.164ZM236.18 113.562C237.32 113.562 238.305 113.984 238.977 114.688H242.352V112.766H244.086V121.078H242.352V119.281H238.977C238.305 119.984 237.312 120.398 236.18 120.391C234.055 120.406 232.445 118.969 232.445 116.984C232.445 114.984 234.055 113.562 236.18 113.562ZM236.18 115.047C234.961 115.047 234.102 115.797 234.102 116.984C234.102 118.141 234.961 118.922 236.18 118.922C237.352 118.922 238.211 118.141 238.227 116.984C238.211 115.797 237.352 115.047 236.18 115.047ZM239.305 121.375C242.273 121.375 244.133 122.391 244.133 124.125C244.133 125.859 242.273 126.875 239.305 126.875C236.352 126.875 234.492 125.859 234.508 124.125C234.492 122.391 236.352 121.375 239.305 121.375ZM239.305 122.703C237.336 122.703 236.195 123.203 236.211 124.125C236.195 125.016 237.336 125.516 239.305 125.516C241.305 125.516 242.43 125.016 242.43 124.125C242.43 123.203 241.305 122.703 239.305 122.703ZM239.758 116.078C239.836 116.367 239.883 116.664 239.883 116.984C239.883 117.297 239.836 117.594 239.773 117.875H242.352V116.078H239.758ZM249.945 113.797C251.859 113.797 253.273 115.391 253.523 117.969H256.211V112.766H257.93V126.906H256.211V119.375H253.539C253.352 122.102 251.914 123.781 249.945 123.781C247.82 123.781 246.32 121.859 246.32 118.781C246.32 115.734 247.82 113.797 249.945 113.797ZM249.945 115.359C248.773 115.359 247.977 116.625 247.992 118.781C247.977 120.953 248.773 122.219 249.945 122.219C251.117 122.219 251.898 120.953 251.914 118.781C251.898 116.625 251.117 115.359 249.945 115.359ZM270.07 121.594C273.133 121.609 275.07 122.578 275.086 124.25C275.07 125.891 273.133 126.875 270.07 126.875C267.023 126.875 265.07 125.891 265.07 124.25C265.07 122.578 267.023 121.609 270.07 121.594ZM270.07 122.906C268.039 122.906 266.805 123.391 266.82 124.25C266.805 125.078 268.039 125.531 270.07 125.531C272.117 125.531 273.352 125.078 273.367 124.25C273.352 123.391 272.117 122.906 270.07 122.906ZM274.992 113.438V114.609C274.992 115.719 274.992 116.906 274.602 118.359L272.883 118.203C273.234 116.828 273.258 115.836 273.258 114.812H265.211V113.438H274.992ZM276.555 119.172V120.578H263.742V119.172H268.711V116.609H270.43V119.172H276.555ZM290.43 120.984V122.359H284.805V126.891H283.086V122.359H277.523V120.984H290.43ZM280.805 113.328V115.062H287.117V113.328H288.867V119.516H279.086V113.328H280.805ZM280.805 118.109H287.117V116.438H280.805V118.109Z" fill="black"/>
<path d="M112.914 47.0759C112.914 46.4626 112.927 46.0092 112.954 45.7159C113.007 45.3959 113.127 45.0359 113.314 44.6359C113.687 43.9159 114.727 43.5559 116.434 43.5559C118.061 43.5559 119.074 43.9159 119.474 44.6359C119.687 45.0359 119.807 45.3959 119.834 45.7159C119.887 46.0359 119.914 46.5026 119.914 47.1159V65.6359C119.914 66.5959 119.994 67.2092 120.154 67.4759C120.314 67.7159 120.661 67.8359 121.194 67.8359C121.754 67.8359 122.127 67.8626 122.314 67.9159C122.501 67.9426 122.727 68.0492 122.994 68.2359C123.527 68.5826 123.794 69.5292 123.794 71.0759C123.794 72.7559 123.527 73.7826 122.994 74.1559C122.301 74.6359 120.647 74.7159 118.034 74.3959C115.981 74.1292 114.647 73.4492 114.034 72.3559C113.287 71.0492 112.914 68.9692 112.914 66.1159V47.0759Z" fill="black"/>
<path d="M139.68 55.7159C139.84 54.2226 140.893 53.4759 142.84 53.4759C143.88 53.4759 144.653 53.5559 145.16 53.7159C145.667 53.8759 146.013 54.1559 146.2 54.5559C146.413 54.9559 146.533 55.3159 146.56 55.6359C146.613 55.9292 146.64 56.3826 146.64 56.9959V70.9959C146.64 71.6092 146.613 72.0759 146.56 72.3959C146.533 72.6892 146.427 73.0359 146.24 73.4359C145.867 74.1292 144.947 74.4759 143.48 74.4759C142.04 74.4759 141.067 74.3026 140.56 73.9559C140.08 73.5826 139.8 73.0492 139.72 72.3559C138.733 73.7692 137.08 74.4759 134.76 74.4759C132.467 74.4759 130.333 73.4226 128.36 71.3159C126.387 69.2092 125.4 66.7692 125.4 63.9959C125.4 61.1959 126.387 58.7559 128.36 56.6759C130.36 54.5692 132.547 53.5159 134.92 53.5159C135.827 53.5159 136.653 53.6759 137.4 53.9959C138.147 54.3159 138.667 54.6226 138.96 54.9159C139.253 55.1826 139.493 55.4492 139.68 55.7159ZM132.4 64.0359C132.4 64.9159 132.747 65.7159 133.44 66.4359C134.133 67.1292 134.973 67.4759 135.96 67.4759C136.947 67.4759 137.76 67.1159 138.4 66.3959C139.067 65.6759 139.4 64.8892 139.4 64.0359C139.4 63.1559 139.08 62.3426 138.44 61.5959C137.827 60.8492 136.987 60.4759 135.92 60.4759C134.88 60.4759 134.027 60.8492 133.36 61.5959C132.72 62.3426 132.4 63.1559 132.4 64.0359Z" fill="black"/>
<path d="M161.548 53.4759C164.215 53.4759 166.428 54.5026 168.188 56.5559C169.975 58.5826 170.868 61.0626 170.868 63.9959V71.0359C170.868 71.6492 170.841 72.1159 170.788 72.4359C170.761 72.7292 170.655 73.0626 170.468 73.4359C170.095 74.1559 169.055 74.5159 167.348 74.5159C165.455 74.5159 164.361 74.0226 164.068 73.0359C163.908 72.5826 163.828 71.9026 163.828 70.9959V63.9559C163.828 62.8626 163.508 62.0092 162.868 61.3959C162.255 60.7826 161.415 60.4759 160.348 60.4759C159.308 60.4759 158.455 60.7959 157.788 61.4359C157.148 62.0759 156.828 62.9159 156.828 63.9559V71.0359C156.828 71.6492 156.801 72.1159 156.748 72.4359C156.721 72.7292 156.601 73.0626 156.388 73.4359C156.041 74.1559 155.015 74.5159 153.308 74.5159C151.628 74.5159 150.601 74.1559 150.228 73.4359C150.041 73.0359 149.921 72.6892 149.868 72.3959C149.841 72.0759 149.828 71.6092 149.828 70.9959V56.8359C149.828 56.2492 149.841 55.8092 149.868 55.5159C149.921 55.1959 150.055 54.8492 150.268 54.4759C150.641 53.8092 151.668 53.4759 153.348 53.4759C154.975 53.4759 155.975 53.7826 156.348 54.3959C156.615 54.8492 156.748 55.3959 156.748 56.0359C156.855 55.8492 157.095 55.5826 157.468 55.2359C157.841 54.8892 158.201 54.6092 158.548 54.3959C159.455 53.7826 160.455 53.4759 161.548 53.4759Z" fill="black"/>
<path d="M187.446 71.9159C186.433 73.2492 184.819 73.9159 182.606 73.9159C180.393 73.9159 178.313 72.9026 176.366 70.8759C174.446 68.8226 173.486 66.4359 173.486 63.7159C173.486 60.9959 174.459 58.6092 176.406 56.5559C178.353 54.5026 180.486 53.4759 182.806 53.4759C183.713 53.4759 184.539 53.6492 185.286 53.9959C186.033 54.3159 186.539 54.6226 186.806 54.9159C187.099 55.1826 187.326 55.4359 187.486 55.6759C187.566 54.9292 187.833 54.3692 188.286 53.9959C188.766 53.5959 189.526 53.3959 190.566 53.3959C191.606 53.3959 192.366 53.4759 192.846 53.6359C193.326 53.7959 193.659 54.0759 193.846 54.4759C194.059 54.8492 194.179 55.1826 194.206 55.4759C194.259 55.7692 194.286 56.2226 194.286 56.8359V73.3959C194.286 76.4626 193.219 78.9292 191.086 80.7959C188.953 82.6892 186.553 83.6359 183.886 83.6359C181.859 83.6359 179.926 83.1426 178.086 82.1559C176.246 81.1692 175.326 80.2759 175.326 79.4759C175.326 78.4359 175.726 77.5159 176.526 76.7159C177.033 76.1559 177.419 75.7692 177.686 75.5559C177.979 75.3426 178.313 75.2359 178.686 75.2359C179.059 75.2359 179.446 75.3959 179.846 75.7159C181.126 76.7026 182.513 77.1959 184.006 77.1959C185.019 77.1959 185.846 76.7959 186.486 75.9959C187.126 75.1959 187.446 74.2359 187.446 73.1159V71.9159ZM180.326 63.7559C180.326 64.6092 180.659 65.3826 181.326 66.0759C182.019 66.7692 182.846 67.1159 183.806 67.1159C184.793 67.1159 185.606 66.7692 186.246 66.0759C186.886 65.3559 187.206 64.5826 187.206 63.7559C187.206 62.9026 186.899 62.1159 186.286 61.3959C185.673 60.6492 184.846 60.2759 183.806 60.2759C182.766 60.2759 181.926 60.6359 181.286 61.3559C180.646 62.0759 180.326 62.8759 180.326 63.7559Z" fill="black"/>
<path d="M197.484 47.0759C197.484 46.4626 197.498 46.0092 197.524 45.7159C197.578 45.3959 197.698 45.0359 197.884 44.6359C198.258 43.9159 199.298 43.5559 201.004 43.5559C202.631 43.5559 203.644 43.9159 204.044 44.6359C204.258 45.0359 204.378 45.3959 204.404 45.7159C204.458 46.0359 204.484 46.5026 204.484 47.1159V65.6359C204.484 66.5959 204.564 67.2092 204.724 67.4759C204.884 67.7159 205.231 67.8359 205.764 67.8359C206.324 67.8359 206.698 67.8626 206.884 67.9159C207.071 67.9426 207.298 68.0492 207.564 68.2359C208.098 68.5826 208.364 69.5292 208.364 71.0759C208.364 72.7559 208.098 73.7826 207.564 74.1559C206.871 74.6359 205.218 74.7159 202.604 74.3959C200.551 74.1292 199.218 73.4492 198.604 72.3559C197.858 71.0492 197.484 68.9692 197.484 66.1159V47.0759Z" fill="black"/>
<path d="M209.97 64.0359C209.97 60.8359 211.09 58.1959 213.33 56.1159C215.57 54.0359 218.13 52.9959 221.01 52.9959C223.89 52.9959 226.437 54.0359 228.65 56.1159C230.864 58.1692 231.97 60.7959 231.97 63.9959C231.97 66.2092 231.397 68.1826 230.25 69.9159C229.104 71.6226 227.704 72.8892 226.05 73.7159C224.424 74.5159 222.73 74.9159 220.97 74.9159C219.21 74.9159 217.504 74.4892 215.85 73.6359C214.197 72.7559 212.797 71.4759 211.65 69.7959C210.53 68.0892 209.97 66.1692 209.97 64.0359ZM218.33 66.9159C219.184 67.5559 220.05 67.8759 220.93 67.8759C221.81 67.8759 222.69 67.5426 223.57 66.8759C224.45 66.2092 224.89 65.2226 224.89 63.9159C224.89 62.6092 224.477 61.6359 223.65 60.9959C222.824 60.3559 221.93 60.0359 220.97 60.0359C220.01 60.0359 219.117 60.3692 218.29 61.0359C217.464 61.7026 217.05 62.6892 217.05 63.9959C217.05 65.2759 217.477 66.2492 218.33 66.9159Z" fill="black"/>
<path d="M247.915 71.9159C246.901 73.2492 245.288 73.9159 243.075 73.9159C240.861 73.9159 238.781 72.9026 236.835 70.8759C234.915 68.8226 233.955 66.4359 233.955 63.7159C233.955 60.9959 234.928 58.6092 236.875 56.5559C238.821 54.5026 240.955 53.4759 243.275 53.4759C244.181 53.4759 245.008 53.6492 245.755 53.9959C246.501 54.3159 247.008 54.6226 247.275 54.9159C247.568 55.1826 247.795 55.4359 247.955 55.6759C248.035 54.9292 248.301 54.3692 248.755 53.9959C249.235 53.5959 249.995 53.3959 251.035 53.3959C252.075 53.3959 252.835 53.4759 253.315 53.6359C253.795 53.7959 254.128 54.0759 254.315 54.4759C254.528 54.8492 254.648 55.1826 254.675 55.4759C254.728 55.7692 254.755 56.2226 254.755 56.8359V73.3959C254.755 76.4626 253.688 78.9292 251.555 80.7959C249.421 82.6892 247.021 83.6359 244.355 83.6359C242.328 83.6359 240.395 83.1426 238.555 82.1559C236.715 81.1692 235.795 80.2759 235.795 79.4759C235.795 78.4359 236.195 77.5159 236.995 76.7159C237.501 76.1559 237.888 75.7692 238.155 75.5559C238.448 75.3426 238.781 75.2359 239.155 75.2359C239.528 75.2359 239.915 75.3959 240.315 75.7159C241.595 76.7026 242.981 77.1959 244.475 77.1959C245.488 77.1959 246.315 76.7959 246.955 75.9959C247.595 75.1959 247.915 74.2359 247.915 73.1159V71.9159ZM240.795 63.7559C240.795 64.6092 241.128 65.3826 241.795 66.0759C242.488 66.7692 243.315 67.1159 244.275 67.1159C245.261 67.1159 246.075 66.7692 246.715 66.0759C247.355 65.3559 247.675 64.5826 247.675 63.7559C247.675 62.9026 247.368 62.1159 246.755 61.3959C246.141 60.6492 245.315 60.2759 244.275 60.2759C243.235 60.2759 242.395 60.6359 241.755 61.3559C241.115 62.0759 240.795 62.8759 240.795 63.7559Z" fill="black"/>
<path fill-rule="evenodd" clip-rule="evenodd" d="M279.376 44.2074C279.376 47.0137 278.186 49.5418 276.282 51.3141C275.698 51.9532 275.021 52.5278 274.256 53.0167C269.648 55.9587 261.597 55.4794 258.712 50.9608L261.161 49.4579C259.602 48.861 258.233 47.8917 257.324 46.5369L259.981 44.8308C259.968 44.6247 259.962 44.4168 259.962 44.2074C259.962 38.8461 264.308 34.5 269.669 34.5C275.03 34.5 279.376 38.8461 279.376 44.2074Z" fill="#9A80F1"/>
</svg>
