<svg width="37" height="34" viewBox="0 0 37 34" fill="none" xmlns="http://www.w3.org/2000/svg">
<g id="Group 1707481652">
<path id="Union" fill-rule="evenodd" clip-rule="evenodd" d="M36.4984 16.7348C36.4984 20.959 34.8585 24.8026 32.1769 27.6711C31.2035 28.7323 30.0734 29.6863 28.7949 30.4977C21.1195 35.3683 7.70785 34.5749 2.9016 27.094L6.13786 25.1202C3.85421 24.1197 1.86376 22.6154 0.498291 20.5914L4.22455 18.2135C4.17985 17.7265 4.15701 17.2333 4.15701 16.7348C4.15701 7.85889 11.3969 0.663574 20.3277 0.663574C26.0749 0.663574 31.1218 3.64334 33.9897 8.13318L33.9899 8.13308C35.4017 10.3306 36.1981 12.7465 36.4243 15.1864C36.4733 15.696 36.4984 16.2125 36.4984 16.7348Z" fill="#E97C70"/>
<path id="Vector 12086" d="M19.4646 12.6996L17.3376 11.2732" stroke="black" stroke-width="1.08376" stroke-linecap="round"/>
<path id="Vector 12087" d="M25.4965 12.6995L27.5073 11.3887" stroke="black" stroke-width="1.08376" stroke-linecap="round"/>
<path id="Vector 9" d="M23.9011 18.2507C23.4299 17.891 22.1693 17.3875 20.897 18.2507" stroke="black" stroke-width="1.08376" stroke-linecap="round"/>
</g>
</svg>
