<svg width="37" height="34" viewBox="0 0 37 34" fill="none" xmlns="http://www.w3.org/2000/svg">
<g id="Group 1707481650">
<path id="Union" fill-rule="evenodd" clip-rule="evenodd" d="M36.5731 16.3665C36.5731 20.5903 34.9335 24.4336 32.2524 27.3019C31.2788 28.3635 30.1485 29.3178 28.8696 30.1294C21.1942 35 7.78256 34.2066 2.97631 26.7257L5.9778 24.8951C3.79263 23.8955 1.89146 22.4258 0.572998 20.4715L4.32241 18.0788C4.26246 17.5161 4.23171 16.9449 4.23171 16.3665C4.23171 7.4906 11.4716 0.295288 20.4024 0.295288C26.1496 0.295288 31.1966 3.27506 34.0644 7.7649L34.0646 7.76482C35.4763 9.96216 36.2727 12.3779 36.4989 14.8177C36.548 15.3274 36.5731 15.844 36.5731 16.3665Z" fill="#AD96F7"/>
<path id="Vector 12088" d="M18.6423 10.2478L29.7637 13.2373" stroke="black" stroke-width="1.08321" stroke-linecap="round"/>
<path id="Vector 12089" d="M29.6809 9.89859L18.7254 13.5867" stroke="black" stroke-width="1.08321" stroke-linecap="round"/>
<path id="Vector 12098" d="M20.4087 19.2103C20.5806 18.8412 20.8789 18.3448 21.7375 18.3448C22.5961 18.3448 22.6644 19.404 23.465 19.3976C24.2656 19.3912 24.4766 18.1607 25.2947 18.0954C26.1128 18.0301 26.3663 19.0685 27.196 19.2103C27.5307 19.2676 28.3204 19.2103 28.8315 18.0954" stroke="black" stroke-width="1.08321" stroke-linecap="round"/>
</g>
</svg>
