<svg width="37" height="34" viewBox="0 0 37 34" fill="none" xmlns="http://www.w3.org/2000/svg">
<g id="Property 1=default, state=Default">
<path id="Union" fill-rule="evenodd" clip-rule="evenodd" d="M36.0725 16.3568C36.0725 20.5998 34.4283 24.46 31.7403 27.3385C30.7693 28.3983 29.6429 29.3512 28.3691 30.162C20.6937 35.0477 7.28207 34.2519 2.47583 26.7478L5.71132 24.7683C3.42799 23.7648 1.43783 22.256 0.0725175 20.226L3.79879 17.8407C3.75406 17.352 3.7312 16.8571 3.7312 16.3568C3.7312 7.45351 10.9711 0.235962 19.9019 0.235962C25.649 0.235962 30.6959 3.22486 33.5638 7.72848L33.5641 7.7283C34.9792 9.93765 35.776 12.3672 36.0001 14.8204C36.048 15.3261 36.0725 15.8386 36.0725 16.3568Z" fill="#F1F0EB"/>
</g>
</svg>
