<svg width="37" height="34" viewBox="0 0 37 34" fill="none" xmlns="http://www.w3.org/2000/svg">
<g id="Group 1707481648">
<path id="Union" fill-rule="evenodd" clip-rule="evenodd" d="M36.3376 16.3567C36.3376 20.5874 34.7028 24.4375 32.0286 27.3134C31.0524 28.3833 29.9183 29.3448 28.6344 30.162C20.9591 35.0477 7.54739 34.2519 2.74114 26.7478L5.97729 24.768C3.69361 23.7644 1.70313 22.2555 0.337654 20.2253L4.0638 17.84C4.01909 17.3516 3.99625 16.8568 3.99625 16.3567C3.99625 7.45337 11.2361 0.235818 20.1669 0.235818C25.9142 0.235818 30.9611 3.22483 33.829 7.72859L33.8294 7.72835C35.258 9.95876 36.0564 12.4135 36.2716 14.8906C36.3153 15.3734 36.3376 15.8625 36.3376 16.3567Z" fill="#7499F5"/>
<path id="Vector 9" d="M23.741 17.8226C23.2697 17.4629 22.0092 16.9593 20.7368 17.8226" stroke="black" stroke-width="1.08376" stroke-linecap="round"/>
<path id="Vector 12089" d="M26.8112 10.7089L24.9957 12.501" stroke="black" stroke-width="1.08321" stroke-linecap="round"/>
<path id="Vector 12091" d="M19.4716 10.4857L17.2038 12.7243" stroke="black" stroke-width="1.08321" stroke-linecap="round"/>
<path id="Vector 12090" d="M26.7808 12.4712L25.0258 10.7388" stroke="black" stroke-width="1.08321" stroke-linecap="round"/>
<path id="Vector 12092" d="M19.4339 12.687L17.2417 10.5231" stroke="black" stroke-width="1.08321" stroke-linecap="round"/>
<path id="Vector 12095" d="M7.802 1.3407V12.7892" stroke="black" stroke-width="1.08321" stroke-linecap="round"/>
<path id="Vector 12096" d="M10.3733 1.3407V10.0089" stroke="black" stroke-width="1.08321" stroke-linecap="round"/>
<path id="Vector 12097" d="M12.9448 1.3407V14.67" stroke="black" stroke-width="1.08321" stroke-linecap="round"/>
</g>
</svg>
