<svg width="37" height="34" viewBox="0 0 37 34" fill="none" xmlns="http://www.w3.org/2000/svg">
<g id="Group 1707481654">
<path id="Union" fill-rule="evenodd" clip-rule="evenodd" d="M36.0726 16.921C36.0726 21.1452 34.4327 24.9889 31.7511 27.8573C30.7777 28.9185 29.6476 29.8726 28.3691 30.6839C20.6937 35.5545 7.28207 34.7611 2.47583 27.2802L5.71209 25.3064C3.42844 24.3059 1.43799 22.8016 0.0725175 20.7777L3.79877 18.3997C3.75407 17.9128 3.73123 17.4195 3.73123 16.921C3.73123 8.04512 10.9711 0.849805 19.9019 0.849805C25.6491 0.849805 30.6961 3.82957 33.5639 8.31941L33.5641 8.31932C34.9759 10.5168 35.7723 12.9328 35.9985 15.3727C36.0475 15.8822 36.0726 16.3987 36.0726 16.921Z" fill="#53DF8B"/>
<path id="Vector 12091" d="M16.0835 11.6887L19.7653 13.524L16.0835 14.8834" stroke="black" stroke-width="1.08" stroke-linecap="round" stroke-linejoin="round"/>
<path id="Vector 12092" d="M27.4675 12.0277L24.5669 13.4736L27.4675 14.5446" stroke="black" stroke-width="1.08" stroke-linecap="round" stroke-linejoin="round"/>
<path id="Vector 9" d="M19.6072 17.7271C20.2805 18.7012 22.2566 20.2485 24.2834 17.7493L19.6072 17.7271Z" stroke="black" stroke-width="1.08" stroke-linecap="round" stroke-linejoin="round"/>
</g>
</svg>
