<svg width="37" height="33" viewBox="0 0 37 33" fill="none" xmlns="http://www.w3.org/2000/svg">
<g id="Group 1707481651">
<path id="Union" fill-rule="evenodd" clip-rule="evenodd" d="M36.648 16.1011C36.648 20.325 35.0085 24.1683 32.3274 27.0366C31.3538 28.0982 30.2234 29.0525 28.9445 29.8641C21.2692 34.7347 7.85751 33.9413 3.05126 26.4604L6.28752 24.4866C4.00387 23.4861 2.01342 21.9818 0.647949 19.9579L4.37421 17.5799C4.32951 17.093 4.30666 16.5997 4.30666 16.1011C4.30666 7.22528 11.5465 0.0299683 20.4773 0.0299683C26.2246 0.0299683 31.2715 3.00974 34.1394 7.49959L34.1395 7.4995C35.5512 9.69684 36.3476 12.1126 36.5739 14.5524C36.6229 15.0621 36.648 15.5787 36.648 16.1011Z" fill="#F3EA42"/>
<path id="Ellipse 24" d="M18.9979 12.7081C18.9979 13.3876 18.4453 13.939 17.7628 13.939C17.0803 13.939 16.5277 13.3876 16.5277 12.7081C16.5277 12.0286 17.0803 11.4772 17.7628 11.4772C18.4453 11.4772 18.9979 12.0286 18.9979 12.7081Z" fill="black" stroke="#F3EA42" stroke-width="0.24101"/>
<path id="Ellipse 25" d="M28.7811 12.3202C28.7811 12.9997 28.2285 13.5511 27.546 13.5511C26.8635 13.5511 26.3109 12.9997 26.3109 12.3202C26.3109 11.6408 26.8635 11.0893 27.546 11.0893C28.2285 11.0893 28.7811 11.6408 28.7811 12.3202Z" fill="black" stroke="#F3EA42" stroke-width="0.24101"/>
<path id="Vector 9" d="M20.1829 16.9074C20.9192 17.4695 22.8889 18.2563 24.8771 16.9074" stroke="black" stroke-width="1.08376" stroke-linecap="round"/>
</g>
</svg>
