<svg width="37" height="34" viewBox="0 0 37 34" fill="none" xmlns="http://www.w3.org/2000/svg">
<g id="Group 1707481653">
<path id="Union" fill-rule="evenodd" clip-rule="evenodd" d="M36.337 16.4682C36.337 20.6924 34.6971 24.536 32.0155 27.4045C31.0421 28.4657 29.912 29.4197 28.6335 30.2311C20.9581 35.1017 7.54647 34.3083 2.74023 26.8274L5.97648 24.8536C3.69284 23.8531 1.70238 22.3488 0.336914 20.3248L4.06317 17.9469C4.01847 17.4599 3.99563 16.9667 3.99563 16.4682C3.99563 7.59229 11.2355 0.396973 20.1663 0.396973C25.9135 0.396973 30.9605 3.37674 33.8283 7.86658L33.8285 7.86648C35.2403 10.064 36.0367 12.4799 36.2629 14.9198C36.3119 15.4294 36.337 15.9459 36.337 16.4682Z" fill="#B9F5F4"/>
<path id="Ellipse 3362" d="M17.8851 20.348C17.5518 21.8072 16.3784 22.7087 14.9147 22.3764C13.4511 22.0441 12.6955 20.7186 13.0288 19.2594C13.3621 17.8003 16.6021 13.3068 17.0805 13.4155C17.559 13.5241 18.2185 18.8889 17.8851 20.348Z" fill="#58A6CA"/>
<path id="Ellipse 3363" d="M30.0398 17.1785C30.2196 18.2277 29.6779 19.1953 28.8299 19.3397C27.9819 19.4841 27.1487 18.7507 26.9689 17.7015C26.7891 16.6524 27.5641 13.6184 27.8414 13.5711C28.1186 13.5239 29.86 16.1294 30.0398 17.1785Z" fill="#58A6CA"/>
<path id="Vector 12086" d="M19.582 10.2813L17.4473 11.7129" stroke="black" stroke-width="1.08376" stroke-linecap="round"/>
<path id="Vector 12087" d="M25.6366 10.3974L27.6548 11.7129" stroke="black" stroke-width="1.08376" stroke-linecap="round"/>
<path id="Vector 9" d="M24.0352 17.2845C23.5622 16.9235 22.297 16.4181 21.02 17.2845" stroke="black" stroke-width="1.08376" stroke-linecap="round"/>
</g>
</svg>
