<svg width="37" height="34" viewBox="0 0 37 34" fill="none" xmlns="http://www.w3.org/2000/svg">
<path fill-rule="evenodd" clip-rule="evenodd" d="M36.0725 16.3568C36.0725 20.5998 34.4283 24.46 31.7403 27.3385C30.7693 28.3983 29.6429 29.3512 28.3691 30.162C20.6937 35.0477 7.28207 34.2519 2.47582 26.7478L5.71131 24.7683C3.42799 23.7648 1.43782 22.256 0.0725098 20.226L3.79878 17.8407C3.75405 17.352 3.73119 16.8571 3.73119 16.3568C3.73119 7.45351 10.9711 0.235962 19.9019 0.235962C25.649 0.235962 30.6959 3.22486 33.5638 7.72848L33.5641 7.7283C34.9792 9.93765 35.776 12.3672 36.0001 14.8204C36.048 15.3261 36.0725 15.8386 36.0725 16.3568Z" fill="#CCCCCC"/>
<path d="M19.5728 11.0526V22.4193" stroke="black" stroke-width="2" stroke-linecap="round"/>
<path d="M25.2563 16.7362L13.8896 16.7362" stroke="black" stroke-width="2" stroke-linecap="round"/>
</svg>
