<svg width="25" height="24" viewBox="0 0 25 24" fill="none" xmlns="http://www.w3.org/2000/svg">
<g id="Property 1=caret_right_big">
<path id="Vector" d="M17.5306 12.5306L10.0306 20.0306C9.96087 20.1003 9.87815 20.1556 9.7871 20.1933C9.69606 20.231 9.59847 20.2504 9.49993 20.2504C9.40138 20.2504 9.3038 20.231 9.21276 20.1933C9.12171 20.1556 9.03899 20.1003 8.9693 20.0306C8.89962 19.9609 8.84435 19.8782 8.80663 19.7872C8.76892 19.6961 8.74951 19.5985 8.74951 19.5C8.74951 19.4014 8.76892 19.3039 8.80663 19.2128C8.84435 19.1218 8.89962 19.039 8.9693 18.9694L15.9396 12L8.9693 5.03061C8.82857 4.88988 8.74951 4.69901 8.74951 4.49999C8.74951 4.30097 8.82857 4.1101 8.9693 3.96936C9.11003 3.82863 9.30091 3.74957 9.49993 3.74957C9.69895 3.74957 9.88982 3.82863 10.0306 3.96936L17.5306 11.4694C17.6003 11.539 17.6556 11.6217 17.6933 11.7128C17.7311 11.8038 17.7505 11.9014 17.7505 12C17.7505 12.0986 17.7311 12.1961 17.6933 12.2872C17.6556 12.3782 17.6003 12.461 17.5306 12.5306Z" fill="black"/>
</g>
</svg>
