<svg width="25" height="25" viewBox="0 0 25 25" fill="none" xmlns="http://www.w3.org/2000/svg">
<g id="Property 1=caret_right_small">
<mask id="mask0_204_3709" style="mask-type:alpha" maskUnits="userSpaceOnUse" x="0" y="0" width="25" height="25">
<rect id="Bounding box" x="0.263428" y="0.25" width="24" height="24" fill="#D9D9D9"/>
</mask>
<g mask="url(#mask0_204_3709)">
<path id="keyboard_arrow_down" d="M15.2739 12.2523C15.2739 12.3728 15.2547 12.485 15.2162 12.5888C15.1777 12.6927 15.1117 12.7914 15.0182 12.8851L10.5239 17.3793C10.3854 17.5177 10.2114 17.5885 10.0017 17.5918C9.79219 17.595 9.61494 17.5242 9.46994 17.3793C9.3251 17.2343 9.25269 17.0587 9.25269 16.8523C9.25269 16.646 9.3251 16.4703 9.46994 16.3253L13.5432 12.2523L9.46994 8.17935C9.3316 8.04085 9.26077 7.86676 9.25744 7.6571C9.25427 7.4476 9.3251 7.27035 9.46994 7.12535C9.61494 6.98051 9.7906 6.9081 9.99694 6.9081C10.2033 6.9081 10.3789 6.98051 10.5239 7.12535L15.0182 11.6196C15.1117 11.7133 15.1777 11.812 15.2162 11.9158C15.2547 12.0197 15.2739 12.1318 15.2739 12.2523Z" fill="black"/>
</g>
</g>
</svg>
