<svg width="25" height="25" viewBox="0 0 25 25" fill="none" xmlns="http://www.w3.org/2000/svg">
<g id="Property 1=caret_down_small">
<mask id="mask0_204_3092" style="mask-type:alpha" maskUnits="userSpaceOnUse" x="0" y="0" width="25" height="25">
<rect id="Bounding box" x="0.93042" y="0.856415" width="24" height="24" fill="#D9D9D9"/>
</mask>
<g mask="url(#mask0_204_3092)">
<path id="keyboard_arrow_down" d="M12.928 15.867C12.8075 15.867 12.6953 15.8478 12.5915 15.8093C12.4876 15.7708 12.3889 15.7048 12.2952 15.6113L7.80098 11.117C7.66265 10.9785 7.59181 10.8045 7.58848 10.5948C7.58531 10.3853 7.65615 10.208 7.80098 10.063C7.94598 9.91821 8.12165 9.84579 8.32798 9.84579C8.53431 9.84579 8.70998 9.91821 8.85498 10.063L12.928 14.1363L17.001 10.063C17.1395 9.92471 17.3136 9.85388 17.5232 9.85054C17.7327 9.84738 17.91 9.91821 18.055 10.063C18.1998 10.208 18.2722 10.3837 18.2722 10.59C18.2722 10.7964 18.1998 10.972 18.055 11.117L13.5607 15.6113C13.4671 15.7048 13.3683 15.7708 13.2645 15.8093C13.1606 15.8478 13.0485 15.867 12.928 15.867Z" fill="black"/>
</g>
</g>
</svg>
