<svg width="25" height="24" viewBox="0 0 25 24" fill="none" xmlns="http://www.w3.org/2000/svg">
<g id="Property 1=trash">
<path id="Vector" d="M20.7822 4.5H17.0322V3.75C17.0322 3.15326 16.7952 2.58097 16.3732 2.15901C15.9513 1.73705 15.379 1.5 14.7822 1.5H10.2822C9.68549 1.5 9.11319 1.73705 8.69124 2.15901C8.26928 2.58097 8.03223 3.15326 8.03223 3.75V4.5H4.28223C4.08331 4.5 3.89255 4.57902 3.7519 4.71967C3.61124 4.86032 3.53223 5.05109 3.53223 5.25C3.53223 5.44891 3.61124 5.63968 3.7519 5.78033C3.89255 5.92098 4.08331 6 4.28223 6H5.03223V19.5C5.03223 19.8978 5.19026 20.2794 5.47157 20.5607C5.75287 20.842 6.1344 21 6.53223 21H18.5322C18.9301 21 19.3116 20.842 19.5929 20.5607C19.8742 20.2794 20.0322 19.8978 20.0322 19.5V6H20.7822C20.9811 6 21.1719 5.92098 21.3126 5.78033C21.4532 5.63968 21.5322 5.44891 21.5322 5.25C21.5322 5.05109 21.4532 4.86032 21.3126 4.71967C21.1719 4.57902 20.9811 4.5 20.7822 4.5ZM9.53223 3.75C9.53223 3.55109 9.61124 3.36032 9.7519 3.21967C9.89255 3.07902 10.0833 3 10.2822 3H14.7822C14.9811 3 15.1719 3.07902 15.3126 3.21967C15.4532 3.36032 15.5322 3.55109 15.5322 3.75V4.5H9.53223V3.75ZM18.5322 19.5H6.53223V6H18.5322V19.5ZM11.0322 9.75V15.75C11.0322 15.9489 10.9532 16.1397 10.8126 16.2803C10.6719 16.421 10.4811 16.5 10.2822 16.5C10.0833 16.5 9.89255 16.421 9.7519 16.2803C9.61124 16.1397 9.53223 15.9489 9.53223 15.75V9.75C9.53223 9.55109 9.61124 9.36032 9.7519 9.21967C9.89255 9.07902 10.0833 9 10.2822 9C10.4811 9 10.6719 9.07902 10.8126 9.21967C10.9532 9.36032 11.0322 9.55109 11.0322 9.75ZM15.5322 9.75V15.75C15.5322 15.9489 15.4532 16.1397 15.3126 16.2803C15.1719 16.421 14.9811 16.5 14.7822 16.5C14.5833 16.5 14.3925 16.421 14.2519 16.2803C14.1112 16.1397 14.0322 15.9489 14.0322 15.75V9.75C14.0322 9.55109 14.1112 9.36032 14.2519 9.21967C14.3925 9.07902 14.5833 9 14.7822 9C14.9811 9 15.1719 9.07902 15.3126 9.21967C15.4532 9.36032 15.5322 9.55109 15.5322 9.75Z" fill="black"/>
</g>
</svg>
