<svg width="25" height="24" viewBox="0 0 25 24" fill="none" xmlns="http://www.w3.org/2000/svg">
<g id="Property 1=PencilSimple">
<path id="Vector" d="M22.2407 6.87845L18.052 2.68876C17.9127 2.54943 17.7473 2.43892 17.5653 2.36351C17.3833 2.28811 17.1882 2.2493 16.9912 2.2493C16.7942 2.2493 16.5991 2.28811 16.4171 2.36351C16.2351 2.43892 16.0697 2.54943 15.9304 2.68876L4.37011 14.25C4.23022 14.3888 4.11931 14.554 4.04383 14.736C3.96834 14.9181 3.9298 15.1133 3.93043 15.3103V19.5C3.93043 19.8978 4.08846 20.2794 4.36977 20.5607C4.65107 20.842 5.0326 21 5.43043 21H9.62012C9.81717 21.0006 10.0124 20.9621 10.1944 20.8866C10.3764 20.8111 10.5416 20.7002 10.6804 20.5603L22.2407 9.00001C22.3801 8.86072 22.4906 8.69534 22.566 8.51333C22.6414 8.33132 22.6802 8.13624 22.6802 7.93923C22.6802 7.74222 22.6414 7.54713 22.566 7.36512C22.4906 7.18311 22.3801 7.01774 22.2407 6.87845ZM9.62012 19.5H5.43043V15.3103L13.6804 7.06032L17.8701 11.25L9.62012 19.5ZM18.9304 10.1888L14.7407 6.00001L16.9907 3.75001L21.1804 7.93876L18.9304 10.1888Z" fill="black"/>
</g>
</svg>
