<svg width="25" height="24" viewBox="0 0 25 24" fill="none" xmlns="http://www.w3.org/2000/svg">
<g id="Property 1=settings">
<mask id="mask0_492_5726" style="mask-type:alpha" maskUnits="userSpaceOnUse" x="0" y="0" width="25" height="24">
<rect id="Bounding box" x="0.749512" width="24" height="24" fill="#D9D9D9"/>
</mask>
<g mask="url(#mask0_492_5726)">
<path id="settings" d="M11.5745 22C11.1245 22 10.737 21.85 10.412 21.55C10.087 21.25 9.89116 20.8833 9.82449 20.45L9.59949 18.8C9.38283 18.7167 9.17866 18.6167 8.98699 18.5C8.79533 18.3833 8.60783 18.2583 8.42449 18.125L6.87449 18.775C6.45783 18.9583 6.04116 18.975 5.62449 18.825C5.20783 18.675 4.88283 18.4083 4.64949 18.025L3.47449 15.975C3.24116 15.5917 3.17449 15.1833 3.27449 14.75C3.37449 14.3167 3.59949 13.9583 3.94949 13.675L5.27449 12.675C5.25783 12.5583 5.24949 12.4458 5.24949 12.3375V11.6625C5.24949 11.5542 5.25783 11.4417 5.27449 11.325L3.94949 10.325C3.59949 10.0417 3.37449 9.68333 3.27449 9.25C3.17449 8.81667 3.24116 8.40833 3.47449 8.025L4.64949 5.975C4.88283 5.59167 5.20783 5.325 5.62449 5.175C6.04116 5.025 6.45783 5.04167 6.87449 5.225L8.42449 5.875C8.60783 5.74167 8.79949 5.61667 8.99949 5.5C9.19949 5.38333 9.39949 5.28333 9.59949 5.2L9.82449 3.55C9.89116 3.11667 10.087 2.75 10.412 2.45C10.737 2.15 11.1245 2 11.5745 2H13.9245C14.3745 2 14.762 2.15 15.087 2.45C15.412 2.75 15.6078 3.11667 15.6745 3.55L15.8995 5.2C16.1162 5.28333 16.3203 5.38333 16.512 5.5C16.7037 5.61667 16.8912 5.74167 17.0745 5.875L18.6245 5.225C19.0412 5.04167 19.4578 5.025 19.8745 5.175C20.2912 5.325 20.6162 5.59167 20.8495 5.975L22.0245 8.025C22.2578 8.40833 22.3245 8.81667 22.2245 9.25C22.1245 9.68333 21.8995 10.0417 21.5495 10.325L20.2245 11.325C20.2412 11.4417 20.2495 11.5542 20.2495 11.6625V12.3375C20.2495 12.4458 20.2328 12.5583 20.1995 12.675L21.5245 13.675C21.8745 13.9583 22.0995 14.3167 22.1995 14.75C22.2995 15.1833 22.2328 15.5917 21.9995 15.975L20.7995 18.025C20.5662 18.4083 20.2412 18.675 19.8245 18.825C19.4078 18.975 18.9912 18.9583 18.5745 18.775L17.0745 18.125C16.8912 18.2583 16.6995 18.3833 16.4995 18.5C16.2995 18.6167 16.0995 18.7167 15.8995 18.8L15.6745 20.45C15.6078 20.8833 15.412 21.25 15.087 21.55C14.762 21.85 14.3745 22 13.9245 22H11.5745ZM12.7995 15.5C13.7662 15.5 14.5912 15.1583 15.2745 14.475C15.9578 13.7917 16.2995 12.9667 16.2995 12C16.2995 11.0333 15.9578 10.2083 15.2745 9.525C14.5912 8.84167 13.7662 8.5 12.7995 8.5C11.8162 8.5 10.987 8.84167 10.312 9.525C9.63699 10.2083 9.29949 11.0333 9.29949 12C9.29949 12.9667 9.63699 13.7917 10.312 14.475C10.987 15.1583 11.8162 15.5 12.7995 15.5Z" fill="#1C1B1F"/>
</g>
</g>
</svg>
