<svg width="25" height="24" viewBox="0 0 25 24" fill="none" xmlns="http://www.w3.org/2000/svg">
<g id="Property 1=X">
<path id="Vector" d="M20.1141 18.2194C20.1837 18.289 20.239 18.3718 20.2767 18.4628C20.3144 18.5539 20.3338 18.6514 20.3338 18.75C20.3338 18.8485 20.3144 18.9461 20.2767 19.0372C20.239 19.1282 20.1837 19.2109 20.1141 19.2806C20.0444 19.3503 19.9616 19.4056 19.8706 19.4433C19.7796 19.481 19.682 19.5004 19.5834 19.5004C19.4849 19.5004 19.3873 19.481 19.2963 19.4433C19.2052 19.4056 19.1225 19.3503 19.0528 19.2806L12.8334 13.0603L6.61405 19.2806C6.47332 19.4213 6.28245 19.5004 6.08342 19.5004C5.8844 19.5004 5.69353 19.4213 5.5528 19.2806C5.41207 19.1399 5.33301 18.949 5.33301 18.75C5.33301 18.551 5.41207 18.3601 5.5528 18.2194L11.7731 12L5.5528 5.78061C5.41207 5.63988 5.33301 5.44901 5.33301 5.24999C5.33301 5.05097 5.41207 4.8601 5.5528 4.71936C5.69353 4.57863 5.8844 4.49957 6.08342 4.49957C6.28245 4.49957 6.47332 4.57863 6.61405 4.71936L12.8334 10.9397L19.0528 4.71936C19.1935 4.57863 19.3844 4.49957 19.5834 4.49957C19.7824 4.49957 19.9733 4.57863 20.1141 4.71936C20.2548 4.8601 20.3338 5.05097 20.3338 5.24999C20.3338 5.44901 20.2548 5.63988 20.1141 5.78061L13.8937 12L20.1141 18.2194Z" fill="black"/>
</g>
</svg>
