<svg width="32" height="32" viewBox="0 0 32 32" fill="none" xmlns="http://www.w3.org/2000/svg">
<g id="Property 1=home">
<path id="Exclude" fill-rule="evenodd" clip-rule="evenodd" d="M4 14.7342V24.75C4 26.4068 5.34315 27.75 7 27.75H25C26.6569 27.75 28 26.4068 28 24.75V14.7249C28 14.0157 27.7487 13.3294 27.2908 12.7878L26.7019 12.0914C24.2236 9.16065 21.515 6.43277 18.6019 3.93383L18.0015 3.4188C16.8812 2.45775 15.2282 2.45446 14.104 3.41104L13.4279 3.98642C10.5322 6.45043 7.83626 9.13994 5.36535 12.0297L4.71988 12.7846C4.25529 13.328 4 14.0193 4 14.7342ZM11.0081 22.3125C10.3177 22.3125 9.75806 22.8721 9.75806 23.5625C9.75806 24.2529 10.3177 24.8125 11.0081 24.8125H20.9919C21.6823 24.8125 22.2419 24.2529 22.2419 23.5625C22.2419 22.8721 21.6823 22.3125 20.9919 22.3125H11.0081Z" fill="#B3B3B3"/>
</g>
</svg>
