<svg width="32" height="32" viewBox="0 0 32 32" fill="none" xmlns="http://www.w3.org/2000/svg">
<g id="Property 1=mylog">
<path id="Rectangle 2511" d="M5.4683 10.652L10.5715 10.652C12.3388 10.652 13.7715 9.21933 13.7715 7.45202L13.7715 2.67456C13.7715 2.6155 13.7057 2.5802 13.6565 2.61284L13.3754 2.79918C10.2626 4.86277 7.56173 7.48853 5.41116 10.5419C5.37855 10.5882 5.41166 10.652 5.4683 10.652Z" fill="#B3B3B3"/>
<path id="Subtract" fill-rule="evenodd" clip-rule="evenodd" d="M11.3149 12.1279L5.3335 12.1279V27.333C5.3335 28.4376 6.22893 29.333 7.3335 29.333H24.6667C25.7713 29.333 26.6667 28.4376 26.6667 27.333V5.53662C26.6667 3.87977 25.3235 2.53662 23.6667 2.53662H15.3149L15.3149 8.12786C15.3149 10.337 13.5241 12.1279 11.3149 12.1279ZM8.5625 16.3125C8.01022 16.3125 7.5625 16.7602 7.5625 17.3125C7.5625 17.8648 8.01022 18.3125 8.5625 18.3125H17.5C18.0523 18.3125 18.5 17.8648 18.5 17.3125C18.5 16.7602 18.0523 16.3125 17.5 16.3125H8.5625ZM8.5625 21.4375C8.01022 21.4375 7.5625 21.8852 7.5625 22.4375C7.5625 22.9898 8.01022 23.4375 8.5625 23.4375H21.25C21.8023 23.4375 22.25 22.9898 22.25 22.4375C22.25 21.8852 21.8023 21.4375 21.25 21.4375H8.5625Z" fill="#B3B3B3"/>
</g>
</svg>
